<mxfile host="app.diagrams.net" modified="2024-06-11T19:18:06.632Z" agent="Mozilla/5.0 (Windows NT 10.0; Win64; x64) AppleWebKit/537.36 (KHTML, like Gecko) Chrome/125.0.0.0 Safari/537.36" etag="pIqytIgk8g1jT_A8YN28" version="24.5.2" type="device">
  <diagram name="Seite-1" id="Eqmvniv_czIGo2SpjLZo">
    <mxGraphModel dx="2074" dy="2275" grid="1" gridSize="10" guides="1" tooltips="1" connect="1" arrows="1" fold="1" page="1" pageScale="1" pageWidth="827" pageHeight="1169" math="0" shadow="0">
      <root>
        <mxCell id="0" />
        <mxCell id="1" parent="0" />
        <mxCell id="cLUYI5qMMWvKZr-MMFAg-8" value="" style="rounded=0;whiteSpace=wrap;html=1;fillColor=none;strokeColor=#FF8000;strokeWidth=4;fontColor=#ff8000;" parent="1" vertex="1">
          <mxGeometry x="80" y="-180" width="1300" height="910" as="geometry" />
        </mxCell>
        <mxCell id="J6vvMmSOAbi-oVOgm_Qq-1" value="&lt;b&gt;Benutzer&lt;/b&gt;" style="swimlane;childLayout=stackLayout;horizontal=1;startSize=50;horizontalStack=0;rounded=1;fontSize=14;fontStyle=0;strokeWidth=2;resizeParent=0;resizeLast=1;shadow=0;dashed=0;align=center;arcSize=4;whiteSpace=wrap;html=1;" parent="1" vertex="1">
          <mxGeometry x="300" width="200" height="160" as="geometry" />
        </mxCell>
        <mxCell id="J6vvMmSOAbi-oVOgm_Qq-2" value="&lt;div&gt;ID: int&lt;/div&gt;&lt;div&gt;Name: String&lt;/div&gt;&lt;div&gt;Vorname: String&lt;/div&gt;&lt;div&gt;Adresse: Adresse&lt;/div&gt;Benutzergruppe: Benutzergruppe&lt;div&gt;E-Mail: E-Mail&lt;/div&gt;&lt;div&gt;Passwort: String&lt;/div&gt;" style="align=left;strokeColor=none;fillColor=none;spacingLeft=4;fontSize=12;verticalAlign=top;resizable=0;rotatable=0;part=1;html=1;" parent="J6vvMmSOAbi-oVOgm_Qq-1" vertex="1">
          <mxGeometry y="50" width="200" height="110" as="geometry" />
        </mxCell>
        <mxCell id="J6vvMmSOAbi-oVOgm_Qq-5" value="&lt;i&gt;&amp;lt;&amp;lt;enumeration&amp;gt;&amp;gt;&lt;/i&gt;&lt;div&gt;&lt;b&gt;Benutzergruppe&lt;/b&gt;&lt;/div&gt;" style="swimlane;childLayout=stackLayout;horizontal=1;startSize=50;horizontalStack=0;rounded=1;fontSize=14;fontStyle=0;strokeWidth=2;resizeParent=0;resizeLast=1;shadow=0;dashed=0;align=center;arcSize=4;whiteSpace=wrap;html=1;" parent="1" vertex="1">
          <mxGeometry x="720" y="-30" width="160" height="100" as="geometry" />
        </mxCell>
        <mxCell id="J6vvMmSOAbi-oVOgm_Qq-6" value="Mitglied&lt;div&gt;Organisator&lt;/div&gt;" style="align=left;strokeColor=none;fillColor=none;spacingLeft=4;fontSize=12;verticalAlign=top;resizable=0;rotatable=0;part=1;html=1;" parent="J6vvMmSOAbi-oVOgm_Qq-5" vertex="1">
          <mxGeometry y="50" width="160" height="50" as="geometry" />
        </mxCell>
        <mxCell id="J6vvMmSOAbi-oVOgm_Qq-12" value="&lt;b&gt;Event&lt;/b&gt;" style="swimlane;childLayout=stackLayout;horizontal=1;startSize=50;horizontalStack=0;rounded=1;fontSize=14;fontStyle=0;strokeWidth=2;resizeParent=0;resizeLast=1;shadow=0;dashed=0;align=center;arcSize=4;whiteSpace=wrap;html=1;" parent="1" vertex="1">
          <mxGeometry x="340" y="551" width="200" height="120" as="geometry" />
        </mxCell>
        <mxCell id="J6vvMmSOAbi-oVOgm_Qq-13" value="&lt;div&gt;ID: int&lt;/div&gt;Name: String&lt;div&gt;&lt;/div&gt;&lt;div&gt;Termin: Datum&lt;/div&gt;&lt;div&gt;Organisator: Organisator&lt;/div&gt;" style="align=left;strokeColor=none;fillColor=none;spacingLeft=4;fontSize=12;verticalAlign=top;resizable=0;rotatable=0;part=1;html=1;" parent="J6vvMmSOAbi-oVOgm_Qq-12" vertex="1">
          <mxGeometry y="50" width="200" height="70" as="geometry" />
        </mxCell>
        <mxCell id="J6vvMmSOAbi-oVOgm_Qq-21" style="edgeStyle=orthogonalEdgeStyle;rounded=0;orthogonalLoop=1;jettySize=auto;html=1;entryX=0.5;entryY=1;entryDx=0;entryDy=0;" parent="1" source="J6vvMmSOAbi-oVOgm_Qq-17" target="J6vvMmSOAbi-oVOgm_Qq-2" edge="1">
          <mxGeometry relative="1" as="geometry" />
        </mxCell>
        <mxCell id="cLUYI5qMMWvKZr-MMFAg-2" style="edgeStyle=orthogonalEdgeStyle;rounded=0;orthogonalLoop=1;jettySize=auto;html=1;entryX=0;entryY=0.25;entryDx=0;entryDy=0;" parent="1" source="J6vvMmSOAbi-oVOgm_Qq-17" target="J6vvMmSOAbi-oVOgm_Qq-13" edge="1">
          <mxGeometry relative="1" as="geometry" />
        </mxCell>
        <mxCell id="cLUYI5qMMWvKZr-MMFAg-3" value="verwalten" style="edgeLabel;html=1;align=center;verticalAlign=middle;resizable=0;points=[];" parent="cLUYI5qMMWvKZr-MMFAg-2" vertex="1" connectable="0">
          <mxGeometry x="-0.1902" y="-2" relative="1" as="geometry">
            <mxPoint as="offset" />
          </mxGeometry>
        </mxCell>
        <mxCell id="J6vvMmSOAbi-oVOgm_Qq-17" value="&lt;b&gt;Organisator&lt;/b&gt;" style="swimlane;childLayout=stackLayout;horizontal=1;startSize=50;horizontalStack=0;rounded=1;fontSize=14;fontStyle=0;strokeWidth=2;resizeParent=0;resizeLast=1;shadow=0;dashed=0;align=center;arcSize=4;whiteSpace=wrap;html=1;" parent="1" vertex="1">
          <mxGeometry x="150" y="240" width="200" height="120" as="geometry" />
        </mxCell>
        <mxCell id="J6vvMmSOAbi-oVOgm_Qq-18" value="&lt;div&gt;&lt;/div&gt;" style="align=left;strokeColor=none;fillColor=none;spacingLeft=4;fontSize=12;verticalAlign=top;resizable=0;rotatable=0;part=1;html=1;" parent="J6vvMmSOAbi-oVOgm_Qq-17" vertex="1">
          <mxGeometry y="50" width="200" height="70" as="geometry" />
        </mxCell>
        <mxCell id="J6vvMmSOAbi-oVOgm_Qq-22" style="edgeStyle=orthogonalEdgeStyle;rounded=0;orthogonalLoop=1;jettySize=auto;html=1;entryX=0.5;entryY=1;entryDx=0;entryDy=0;" parent="1" source="J6vvMmSOAbi-oVOgm_Qq-19" target="J6vvMmSOAbi-oVOgm_Qq-2" edge="1">
          <mxGeometry relative="1" as="geometry" />
        </mxCell>
        <mxCell id="FKtlgxsSE6_4xqyyRltD-6" style="edgeStyle=orthogonalEdgeStyle;rounded=0;orthogonalLoop=1;jettySize=auto;html=1;entryX=0.5;entryY=0;entryDx=0;entryDy=0;endArrow=none;endFill=0;" parent="1" source="J6vvMmSOAbi-oVOgm_Qq-19" target="FKtlgxsSE6_4xqyyRltD-3" edge="1">
          <mxGeometry relative="1" as="geometry" />
        </mxCell>
        <mxCell id="FKtlgxsSE6_4xqyyRltD-8" value="ist" style="edgeLabel;html=1;align=center;verticalAlign=middle;resizable=0;points=[];" parent="FKtlgxsSE6_4xqyyRltD-6" vertex="1" connectable="0">
          <mxGeometry x="0.1978" y="3" relative="1" as="geometry">
            <mxPoint x="-2" as="offset" />
          </mxGeometry>
        </mxCell>
        <mxCell id="J6vvMmSOAbi-oVOgm_Qq-19" value="&lt;b&gt;Mitglied&lt;/b&gt;" style="swimlane;childLayout=stackLayout;horizontal=1;startSize=50;horizontalStack=0;rounded=1;fontSize=14;fontStyle=0;strokeWidth=2;resizeParent=0;resizeLast=1;shadow=0;dashed=0;align=center;arcSize=4;whiteSpace=wrap;html=1;" parent="1" vertex="1">
          <mxGeometry x="460" y="240" width="200" height="120" as="geometry" />
        </mxCell>
        <mxCell id="J6vvMmSOAbi-oVOgm_Qq-20" value="&lt;div&gt;&lt;/div&gt;" style="align=left;strokeColor=none;fillColor=none;spacingLeft=4;fontSize=12;verticalAlign=top;resizable=0;rotatable=0;part=1;html=1;" parent="J6vvMmSOAbi-oVOgm_Qq-19" vertex="1">
          <mxGeometry y="50" width="200" height="70" as="geometry" />
        </mxCell>
        <mxCell id="J6vvMmSOAbi-oVOgm_Qq-26" value="0 .. *" style="text;html=1;align=center;verticalAlign=middle;resizable=0;points=[];autosize=1;strokeColor=none;fillColor=none;" parent="1" vertex="1">
          <mxGeometry x="290" y="620" width="50" height="30" as="geometry" />
        </mxCell>
        <mxCell id="J6vvMmSOAbi-oVOgm_Qq-27" value="1" style="text;html=1;align=center;verticalAlign=middle;resizable=0;points=[];autosize=1;strokeColor=none;fillColor=none;" parent="1" vertex="1">
          <mxGeometry x="220" y="360" width="30" height="30" as="geometry" />
        </mxCell>
        <mxCell id="J6vvMmSOAbi-oVOgm_Qq-30" value="&lt;div&gt;&amp;lt;&amp;lt;datatype&amp;gt;&amp;gt;&lt;/div&gt;&lt;b&gt;Adresse&lt;/b&gt;" style="swimlane;childLayout=stackLayout;horizontal=1;startSize=50;horizontalStack=0;rounded=1;fontSize=14;fontStyle=0;strokeWidth=2;resizeParent=0;resizeLast=1;shadow=0;dashed=0;align=center;arcSize=4;whiteSpace=wrap;html=1;" parent="1" vertex="1">
          <mxGeometry x="930" y="-30" width="160" height="120" as="geometry" />
        </mxCell>
        <mxCell id="J6vvMmSOAbi-oVOgm_Qq-31" value="Strasse: String&lt;div&gt;Hausnummer: String&lt;/div&gt;&lt;div&gt;PLZ: String&lt;/div&gt;&lt;div&gt;Ort: String&lt;/div&gt;" style="align=left;strokeColor=none;fillColor=none;spacingLeft=4;fontSize=12;verticalAlign=top;resizable=0;rotatable=0;part=1;html=1;" parent="J6vvMmSOAbi-oVOgm_Qq-30" vertex="1">
          <mxGeometry y="50" width="160" height="70" as="geometry" />
        </mxCell>
        <mxCell id="FKtlgxsSE6_4xqyyRltD-1" value="&lt;div&gt;&amp;lt;&amp;lt;datatype&amp;gt;&amp;gt;&lt;b&gt;&lt;br&gt;&lt;/b&gt;&lt;/div&gt;&lt;b&gt;Datum&lt;/b&gt;" style="swimlane;childLayout=stackLayout;horizontal=1;startSize=50;horizontalStack=0;rounded=1;fontSize=14;fontStyle=0;strokeWidth=2;resizeParent=0;resizeLast=1;shadow=0;dashed=0;align=center;arcSize=4;whiteSpace=wrap;html=1;" parent="1" vertex="1">
          <mxGeometry x="930" y="120" width="160" height="120" as="geometry" />
        </mxCell>
        <mxCell id="FKtlgxsSE6_4xqyyRltD-2" value="Tag: Int&lt;div&gt;Monat: Int&lt;/div&gt;&lt;div&gt;Jahr: Int&lt;/div&gt;" style="align=left;strokeColor=none;fillColor=none;spacingLeft=4;fontSize=12;verticalAlign=top;resizable=0;rotatable=0;part=1;html=1;" parent="FKtlgxsSE6_4xqyyRltD-1" vertex="1">
          <mxGeometry y="50" width="160" height="70" as="geometry" />
        </mxCell>
        <mxCell id="FKtlgxsSE6_4xqyyRltD-3" value="&lt;b&gt;Helfer&lt;/b&gt;" style="swimlane;childLayout=stackLayout;horizontal=1;startSize=50;horizontalStack=0;rounded=1;fontSize=14;fontStyle=0;strokeWidth=2;resizeParent=0;resizeLast=1;shadow=0;dashed=0;align=center;arcSize=4;whiteSpace=wrap;html=1;" parent="1" vertex="1">
          <mxGeometry x="740" y="480" width="200" height="120" as="geometry" />
        </mxCell>
        <mxCell id="FKtlgxsSE6_4xqyyRltD-4" value="&lt;div&gt;ID: int&lt;/div&gt;MitgliedID: int&lt;div&gt;EventID: int&lt;/div&gt;" style="align=left;strokeColor=none;fillColor=none;spacingLeft=4;fontSize=12;verticalAlign=top;resizable=0;rotatable=0;part=1;html=1;" parent="FKtlgxsSE6_4xqyyRltD-3" vertex="1">
          <mxGeometry y="50" width="200" height="70" as="geometry" />
        </mxCell>
        <mxCell id="FKtlgxsSE6_4xqyyRltD-7" style="edgeStyle=orthogonalEdgeStyle;rounded=0;orthogonalLoop=1;jettySize=auto;html=1;entryX=1;entryY=0.25;entryDx=0;entryDy=0;endArrow=none;endFill=0;" parent="1" source="FKtlgxsSE6_4xqyyRltD-4" target="J6vvMmSOAbi-oVOgm_Qq-13" edge="1">
          <mxGeometry relative="1" as="geometry">
            <Array as="points">
              <mxPoint x="630" y="565" />
              <mxPoint x="630" y="615" />
            </Array>
          </mxGeometry>
        </mxCell>
        <mxCell id="FKtlgxsSE6_4xqyyRltD-9" value="unterstützt" style="edgeLabel;html=1;align=center;verticalAlign=middle;resizable=0;points=[];" parent="FKtlgxsSE6_4xqyyRltD-7" vertex="1" connectable="0">
          <mxGeometry x="-0.0146" y="3" relative="1" as="geometry">
            <mxPoint as="offset" />
          </mxGeometry>
        </mxCell>
        <mxCell id="FKtlgxsSE6_4xqyyRltD-10" value="0 .. *" style="text;html=1;align=center;verticalAlign=middle;resizable=0;points=[];autosize=1;strokeColor=none;fillColor=none;" parent="1" vertex="1">
          <mxGeometry x="690" y="566" width="50" height="30" as="geometry" />
        </mxCell>
        <mxCell id="FKtlgxsSE6_4xqyyRltD-11" value="0 .. *" style="text;html=1;align=center;verticalAlign=middle;resizable=0;points=[];autosize=1;strokeColor=none;fillColor=none;" parent="1" vertex="1">
          <mxGeometry x="790" y="450" width="50" height="30" as="geometry" />
        </mxCell>
        <mxCell id="FKtlgxsSE6_4xqyyRltD-12" value="1" style="text;html=1;align=center;verticalAlign=middle;resizable=0;points=[];autosize=1;strokeColor=none;fillColor=none;" parent="1" vertex="1">
          <mxGeometry x="540" y="615" width="30" height="30" as="geometry" />
        </mxCell>
        <mxCell id="FKtlgxsSE6_4xqyyRltD-13" value="1" style="text;html=1;align=center;verticalAlign=middle;resizable=0;points=[];autosize=1;strokeColor=none;fillColor=none;" parent="1" vertex="1">
          <mxGeometry x="660" y="300" width="30" height="30" as="geometry" />
        </mxCell>
        <mxCell id="cLUYI5qMMWvKZr-MMFAg-4" value="&lt;div&gt;&amp;lt;&amp;lt;datatype&amp;gt;&amp;gt;&lt;b&gt;&lt;br&gt;&lt;/b&gt;&lt;/div&gt;&lt;b&gt;E-Mail&lt;/b&gt;" style="swimlane;childLayout=stackLayout;horizontal=1;startSize=50;horizontalStack=0;rounded=1;fontSize=14;fontStyle=0;strokeWidth=2;resizeParent=0;resizeLast=1;shadow=0;dashed=0;align=center;arcSize=4;whiteSpace=wrap;html=1;" parent="1" vertex="1">
          <mxGeometry x="730" y="120" width="160" height="120" as="geometry" />
        </mxCell>
        <mxCell id="cLUYI5qMMWvKZr-MMFAg-5" value="Kennung: String&lt;div&gt;Organisation: String&lt;/div&gt;&lt;div&gt;Domäne: String&lt;/div&gt;" style="align=left;strokeColor=none;fillColor=none;spacingLeft=4;fontSize=12;verticalAlign=top;resizable=0;rotatable=0;part=1;html=1;" parent="cLUYI5qMMWvKZr-MMFAg-4" vertex="1">
          <mxGeometry y="50" width="160" height="70" as="geometry" />
        </mxCell>
        <mxCell id="cLUYI5qMMWvKZr-MMFAg-7" value="Fachlicher Entwurf" style="text;html=1;align=center;verticalAlign=middle;resizable=0;points=[];autosize=1;strokeColor=none;fillColor=none;fontSize=50;fontStyle=1;fontColor=#ff8000;" parent="1" vertex="1">
          <mxGeometry x="100" y="-170" width="440" height="70" as="geometry" />
        </mxCell>
        <mxCell id="cLUYI5qMMWvKZr-MMFAg-9" value="" style="rounded=0;whiteSpace=wrap;html=1;fillColor=none;strokeColor=#0066CC;strokeWidth=4;fontColor=#0066CC;" parent="1" vertex="1">
          <mxGeometry x="1690" y="-160" width="1500" height="1030" as="geometry" />
        </mxCell>
        <mxCell id="cLUYI5qMMWvKZr-MMFAg-12" value="&lt;i&gt;&amp;lt;&amp;lt;enumeration&amp;gt;&amp;gt;&lt;/i&gt;&lt;div&gt;&lt;b&gt;Benutzergruppe&lt;/b&gt;&lt;/div&gt;" style="swimlane;childLayout=stackLayout;horizontal=1;startSize=50;horizontalStack=0;rounded=0;fontSize=14;fontStyle=0;strokeWidth=1;resizeParent=0;resizeLast=1;shadow=0;dashed=0;align=center;arcSize=4;whiteSpace=wrap;html=1;" parent="1" vertex="1">
          <mxGeometry x="2785" y="458" width="160" height="100" as="geometry" />
        </mxCell>
        <mxCell id="cLUYI5qMMWvKZr-MMFAg-13" value="Mitglied&lt;div&gt;Organisator&lt;/div&gt;" style="align=left;strokeColor=none;fillColor=none;spacingLeft=4;fontSize=12;verticalAlign=top;resizable=0;rotatable=0;part=1;html=1;" parent="cLUYI5qMMWvKZr-MMFAg-12" vertex="1">
          <mxGeometry y="50" width="160" height="50" as="geometry" />
        </mxCell>
        <mxCell id="cLUYI5qMMWvKZr-MMFAg-42" value="Technischer Entwurf" style="text;html=1;align=center;verticalAlign=middle;resizable=0;points=[];autosize=1;strokeColor=none;fillColor=none;fontSize=50;fontStyle=1;fontColor=#0066CC;" parent="1" vertex="1">
          <mxGeometry x="1730" y="-140" width="470" height="70" as="geometry" />
        </mxCell>
        <mxCell id="cLUYI5qMMWvKZr-MMFAg-47" value="&lt;div style=&quot;font-size: 14px; font-weight: 400;&quot;&gt;&amp;lt;&amp;lt;Entity&amp;gt;&amp;gt;&lt;/div&gt;&lt;b style=&quot;font-size: 14px;&quot;&gt;Benutzer&lt;/b&gt;" style="swimlane;fontStyle=1;align=center;verticalAlign=top;childLayout=stackLayout;horizontal=1;startSize=46;horizontalStack=0;resizeParent=1;resizeParentMax=0;resizeLast=0;collapsible=1;marginBottom=0;whiteSpace=wrap;html=1;rounded=0;" parent="1" vertex="1">
          <mxGeometry x="2460" y="-40" width="220" height="230" as="geometry" />
        </mxCell>
        <mxCell id="cLUYI5qMMWvKZr-MMFAg-48" value="&lt;div style=&quot;text-wrap: nowrap;&quot;&gt;- ID: int&lt;/div&gt;&lt;div style=&quot;text-wrap: nowrap;&quot;&gt;&lt;span style=&quot;background-color: initial;&quot;&gt;-&lt;/span&gt;&lt;span style=&quot;background-color: initial;&quot;&gt;&amp;nbsp;&lt;/span&gt;Name: String&lt;/div&gt;&lt;div style=&quot;text-wrap: nowrap;&quot;&gt;&lt;span style=&quot;background-color: initial;&quot;&gt;-&lt;/span&gt;&lt;span style=&quot;background-color: initial;&quot;&gt;&amp;nbsp;&lt;/span&gt;Vorname: String&lt;/div&gt;&lt;div style=&quot;text-wrap: nowrap;&quot;&gt;&lt;span style=&quot;background-color: initial;&quot;&gt;-&lt;/span&gt;&lt;span style=&quot;background-color: initial;&quot;&gt;&amp;nbsp;&lt;/span&gt;Adresse: Adresse&lt;/div&gt;&lt;span style=&quot;text-wrap: nowrap;&quot;&gt;-&amp;nbsp;&lt;/span&gt;&lt;span style=&quot;text-wrap: nowrap;&quot;&gt;Benutzergruppe: Benutzergruppe&lt;br&gt;&lt;/span&gt;&lt;div style=&quot;text-wrap: nowrap;&quot;&gt;&lt;span style=&quot;background-color: initial;&quot;&gt;-&lt;/span&gt;&lt;span style=&quot;background-color: initial;&quot;&gt;&amp;nbsp;&lt;/span&gt;E-Mail: E-Mail&lt;/div&gt;&lt;div style=&quot;text-wrap: nowrap;&quot;&gt;&lt;span style=&quot;background-color: initial;&quot;&gt;-&lt;/span&gt;&lt;span style=&quot;background-color: initial;&quot;&gt;&amp;nbsp;&lt;/span&gt;Passwort: String&lt;/div&gt;" style="text;strokeColor=none;fillColor=none;align=left;verticalAlign=top;spacingLeft=4;spacingRight=4;overflow=hidden;rotatable=0;points=[[0,0.5],[1,0.5]];portConstraint=eastwest;whiteSpace=wrap;html=1;" parent="cLUYI5qMMWvKZr-MMFAg-47" vertex="1">
          <mxGeometry y="46" width="220" height="114" as="geometry" />
        </mxCell>
        <mxCell id="cLUYI5qMMWvKZr-MMFAg-49" value="" style="line;strokeWidth=1;fillColor=none;align=left;verticalAlign=middle;spacingTop=-1;spacingLeft=3;spacingRight=3;rotatable=0;labelPosition=right;points=[];portConstraint=eastwest;strokeColor=inherit;" parent="cLUYI5qMMWvKZr-MMFAg-47" vertex="1">
          <mxGeometry y="160" width="220" height="8" as="geometry" />
        </mxCell>
        <mxCell id="cLUYI5qMMWvKZr-MMFAg-50" value="&lt;div&gt;&lt;span style=&quot;background-color: initial;&quot;&gt;+ getBenutzerDaten()&lt;/span&gt;&lt;br&gt;&lt;/div&gt;&lt;div&gt;+ setBenutzerDaten()&lt;br&gt;&lt;div&gt;&lt;span style=&quot;background-color: initial;&quot;&gt;+ setRolle()&lt;/span&gt;&lt;br&gt;&lt;/div&gt;&lt;/div&gt;" style="text;strokeColor=none;fillColor=none;align=left;verticalAlign=top;spacingLeft=4;spacingRight=4;overflow=hidden;rotatable=0;points=[[0,0.5],[1,0.5]];portConstraint=eastwest;whiteSpace=wrap;html=1;" parent="cLUYI5qMMWvKZr-MMFAg-47" vertex="1">
          <mxGeometry y="168" width="220" height="62" as="geometry" />
        </mxCell>
        <mxCell id="cLUYI5qMMWvKZr-MMFAg-115" style="edgeStyle=orthogonalEdgeStyle;rounded=0;orthogonalLoop=1;jettySize=auto;html=1;" parent="1" source="cLUYI5qMMWvKZr-MMFAg-55" target="cLUYI5qMMWvKZr-MMFAg-47" edge="1">
          <mxGeometry relative="1" as="geometry">
            <Array as="points">
              <mxPoint x="2520" y="240" />
              <mxPoint x="2570" y="240" />
            </Array>
          </mxGeometry>
        </mxCell>
        <mxCell id="cLUYI5qMMWvKZr-MMFAg-55" value="&lt;div style=&quot;font-size: 14px; font-weight: 400;&quot;&gt;&amp;lt;&amp;lt;Entity&amp;gt;&amp;gt;&lt;b&gt;&lt;br&gt;&lt;/b&gt;&lt;/div&gt;&lt;b style=&quot;font-size: 14px;&quot;&gt;Organisator&lt;/b&gt;" style="swimlane;fontStyle=1;align=center;verticalAlign=top;childLayout=stackLayout;horizontal=1;startSize=50;horizontalStack=0;resizeParent=1;resizeParentMax=0;resizeLast=0;collapsible=1;marginBottom=0;whiteSpace=wrap;html=1;" parent="1" vertex="1">
          <mxGeometry x="2420" y="280" width="200" height="130" as="geometry" />
        </mxCell>
        <mxCell id="cLUYI5qMMWvKZr-MMFAg-56" value="&lt;span style=&quot;text-wrap: nowrap;&quot;&gt;- &amp;lt;&amp;lt;List&amp;gt;&amp;gt; eigeneEvents: Event [*]&lt;/span&gt;" style="text;strokeColor=none;fillColor=none;align=left;verticalAlign=top;spacingLeft=4;spacingRight=4;overflow=hidden;rotatable=0;points=[[0,0.5],[1,0.5]];portConstraint=eastwest;whiteSpace=wrap;html=1;" parent="cLUYI5qMMWvKZr-MMFAg-55" vertex="1">
          <mxGeometry y="50" width="200" height="26" as="geometry" />
        </mxCell>
        <mxCell id="cLUYI5qMMWvKZr-MMFAg-57" value="" style="line;strokeWidth=1;fillColor=none;align=left;verticalAlign=middle;spacingTop=-1;spacingLeft=3;spacingRight=3;rotatable=0;labelPosition=right;points=[];portConstraint=eastwest;strokeColor=inherit;" parent="cLUYI5qMMWvKZr-MMFAg-55" vertex="1">
          <mxGeometry y="76" width="200" height="8" as="geometry" />
        </mxCell>
        <mxCell id="cLUYI5qMMWvKZr-MMFAg-58" value="+ OrganisatorAnlegen()&lt;div&gt;+ getEigeneEvents()&lt;/div&gt;" style="text;strokeColor=none;fillColor=none;align=left;verticalAlign=top;spacingLeft=4;spacingRight=4;overflow=hidden;rotatable=0;points=[[0,0.5],[1,0.5]];portConstraint=eastwest;whiteSpace=wrap;html=1;" parent="cLUYI5qMMWvKZr-MMFAg-55" vertex="1">
          <mxGeometry y="84" width="200" height="46" as="geometry" />
        </mxCell>
        <mxCell id="cLUYI5qMMWvKZr-MMFAg-116" style="edgeStyle=orthogonalEdgeStyle;rounded=0;orthogonalLoop=1;jettySize=auto;html=1;" parent="1" source="cLUYI5qMMWvKZr-MMFAg-59" target="cLUYI5qMMWvKZr-MMFAg-47" edge="1">
          <mxGeometry relative="1" as="geometry">
            <Array as="points">
              <mxPoint x="2720" y="240" />
              <mxPoint x="2570" y="240" />
            </Array>
          </mxGeometry>
        </mxCell>
        <mxCell id="cLUYI5qMMWvKZr-MMFAg-133" style="edgeStyle=orthogonalEdgeStyle;rounded=0;orthogonalLoop=1;jettySize=auto;html=1;endArrow=open;endFill=0;" parent="1" source="cLUYI5qMMWvKZr-MMFAg-59" target="cLUYI5qMMWvKZr-MMFAg-67" edge="1">
          <mxGeometry relative="1" as="geometry">
            <Array as="points">
              <mxPoint x="2720" y="725" />
            </Array>
          </mxGeometry>
        </mxCell>
        <mxCell id="cLUYI5qMMWvKZr-MMFAg-134" value="ist" style="edgeLabel;html=1;align=center;verticalAlign=middle;resizable=0;points=[];" parent="cLUYI5qMMWvKZr-MMFAg-133" vertex="1" connectable="0">
          <mxGeometry x="-0.2361" y="3" relative="1" as="geometry">
            <mxPoint x="-2" as="offset" />
          </mxGeometry>
        </mxCell>
        <mxCell id="cLUYI5qMMWvKZr-MMFAg-59" value="&lt;div style=&quot;font-size: 14px; font-weight: 400;&quot;&gt;&amp;lt;&amp;lt;Entity&amp;gt;&amp;gt;&lt;b&gt;&lt;br&gt;&lt;/b&gt;&lt;/div&gt;&lt;b style=&quot;font-size: 14px;&quot;&gt;Mitglied&lt;/b&gt;" style="swimlane;fontStyle=1;align=center;verticalAlign=top;childLayout=stackLayout;horizontal=1;startSize=50;horizontalStack=0;resizeParent=1;resizeParentMax=0;resizeLast=0;collapsible=1;marginBottom=0;whiteSpace=wrap;html=1;" parent="1" vertex="1">
          <mxGeometry x="2650" y="280" width="190" height="130" as="geometry" />
        </mxCell>
        <mxCell id="cLUYI5qMMWvKZr-MMFAg-60" value="&lt;span style=&quot;text-wrap: nowrap;&quot;&gt;- &amp;lt;&amp;lt;List&amp;gt;&amp;gt; helferEvents: Event [*]&lt;/span&gt;" style="text;strokeColor=none;fillColor=none;align=left;verticalAlign=top;spacingLeft=4;spacingRight=4;overflow=hidden;rotatable=0;points=[[0,0.5],[1,0.5]];portConstraint=eastwest;whiteSpace=wrap;html=1;" parent="cLUYI5qMMWvKZr-MMFAg-59" vertex="1">
          <mxGeometry y="50" width="190" height="26" as="geometry" />
        </mxCell>
        <mxCell id="cLUYI5qMMWvKZr-MMFAg-61" value="" style="line;strokeWidth=1;fillColor=none;align=left;verticalAlign=middle;spacingTop=-1;spacingLeft=3;spacingRight=3;rotatable=0;labelPosition=right;points=[];portConstraint=eastwest;strokeColor=inherit;" parent="cLUYI5qMMWvKZr-MMFAg-59" vertex="1">
          <mxGeometry y="76" width="190" height="8" as="geometry" />
        </mxCell>
        <mxCell id="cLUYI5qMMWvKZr-MMFAg-62" value="+ MitgliedAnlegen()&lt;div&gt;+ getHelferEvents()&lt;/div&gt;" style="text;strokeColor=none;fillColor=none;align=left;verticalAlign=top;spacingLeft=4;spacingRight=4;overflow=hidden;rotatable=0;points=[[0,0.5],[1,0.5]];portConstraint=eastwest;whiteSpace=wrap;html=1;" parent="cLUYI5qMMWvKZr-MMFAg-59" vertex="1">
          <mxGeometry y="84" width="190" height="46" as="geometry" />
        </mxCell>
        <mxCell id="cLUYI5qMMWvKZr-MMFAg-129" style="edgeStyle=orthogonalEdgeStyle;rounded=0;orthogonalLoop=1;jettySize=auto;html=1;endArrow=open;endFill=0;" parent="1" source="cLUYI5qMMWvKZr-MMFAg-63" target="cLUYI5qMMWvKZr-MMFAg-68" edge="1">
          <mxGeometry relative="1" as="geometry">
            <Array as="points">
              <mxPoint x="2640" y="549" />
              <mxPoint x="2640" y="760" />
            </Array>
          </mxGeometry>
        </mxCell>
        <mxCell id="cLUYI5qMMWvKZr-MMFAg-132" value="gehört zu" style="edgeLabel;html=1;align=center;verticalAlign=middle;resizable=0;points=[];" parent="cLUYI5qMMWvKZr-MMFAg-129" vertex="1" connectable="0">
          <mxGeometry x="0.0273" y="3" relative="1" as="geometry">
            <mxPoint as="offset" />
          </mxGeometry>
        </mxCell>
        <mxCell id="cLUYI5qMMWvKZr-MMFAg-63" value="&lt;div style=&quot;font-size: 14px; font-weight: 400;&quot;&gt;&amp;lt;&amp;lt;Entity&amp;gt;&amp;gt;&lt;b&gt;&lt;br&gt;&lt;/b&gt;&lt;/div&gt;&lt;b style=&quot;font-size: 14px;&quot;&gt;Event&lt;/b&gt;" style="swimlane;fontStyle=1;align=center;verticalAlign=top;childLayout=stackLayout;horizontal=1;startSize=46;horizontalStack=0;resizeParent=1;resizeParentMax=0;resizeLast=0;collapsible=1;marginBottom=0;whiteSpace=wrap;html=1;" parent="1" vertex="1">
          <mxGeometry x="2420" y="439" width="160" height="170" as="geometry" />
        </mxCell>
        <mxCell id="cLUYI5qMMWvKZr-MMFAg-64" value="&lt;div style=&quot;text-wrap: nowrap;&quot;&gt;- ID: int&lt;/div&gt;&lt;span style=&quot;text-wrap: nowrap;&quot;&gt;-&amp;nbsp;&lt;/span&gt;&lt;span style=&quot;text-wrap: nowrap;&quot;&gt;Name: String&lt;/span&gt;&lt;div style=&quot;text-wrap: nowrap;&quot;&gt;&lt;/div&gt;&lt;div style=&quot;text-wrap: nowrap;&quot;&gt;&lt;span style=&quot;background-color: initial;&quot;&gt;-&lt;/span&gt;&lt;span style=&quot;background-color: initial;&quot;&gt;&amp;nbsp;&lt;/span&gt;Termin: Datum&lt;/div&gt;&lt;div style=&quot;text-wrap: nowrap;&quot;&gt;&lt;span style=&quot;background-color: initial;&quot;&gt;-&lt;/span&gt;&lt;span style=&quot;background-color: initial;&quot;&gt;&amp;nbsp;&lt;/span&gt;Organisator: Organisator&lt;/div&gt;&lt;div style=&quot;text-wrap: nowrap;&quot;&gt;- &amp;lt;&amp;lt;List&amp;gt;&amp;gt; helfer: Helfer [*]&lt;/div&gt;" style="text;strokeColor=none;fillColor=none;align=left;verticalAlign=top;spacingLeft=4;spacingRight=4;overflow=hidden;rotatable=0;points=[[0,0.5],[1,0.5]];portConstraint=eastwest;whiteSpace=wrap;html=1;" parent="cLUYI5qMMWvKZr-MMFAg-63" vertex="1">
          <mxGeometry y="46" width="160" height="84" as="geometry" />
        </mxCell>
        <mxCell id="cLUYI5qMMWvKZr-MMFAg-65" value="" style="line;strokeWidth=1;fillColor=none;align=left;verticalAlign=middle;spacingTop=-1;spacingLeft=3;spacingRight=3;rotatable=0;labelPosition=right;points=[];portConstraint=eastwest;strokeColor=inherit;" parent="cLUYI5qMMWvKZr-MMFAg-63" vertex="1">
          <mxGeometry y="130" width="160" height="8" as="geometry" />
        </mxCell>
        <mxCell id="cLUYI5qMMWvKZr-MMFAg-66" value="&lt;div&gt;&lt;span style=&quot;background-color: initial;&quot;&gt;+ getEckDaten()&lt;/span&gt;&lt;/div&gt;" style="text;strokeColor=none;fillColor=none;align=left;verticalAlign=top;spacingLeft=4;spacingRight=4;overflow=hidden;rotatable=0;points=[[0,0.5],[1,0.5]];portConstraint=eastwest;whiteSpace=wrap;html=1;" parent="cLUYI5qMMWvKZr-MMFAg-63" vertex="1">
          <mxGeometry y="138" width="160" height="32" as="geometry" />
        </mxCell>
        <mxCell id="cLUYI5qMMWvKZr-MMFAg-67" value="&lt;div style=&quot;font-size: 14px; font-weight: 400;&quot;&gt;&amp;lt;&amp;lt;Entity&amp;gt;&amp;gt;&lt;b&gt;&lt;br&gt;&lt;/b&gt;&lt;/div&gt;&lt;b style=&quot;font-size: 14px;&quot;&gt;Helfer&lt;/b&gt;" style="swimlane;fontStyle=1;align=center;verticalAlign=top;childLayout=stackLayout;horizontal=1;startSize=50;horizontalStack=0;resizeParent=1;resizeParentMax=0;resizeLast=0;collapsible=1;marginBottom=0;whiteSpace=wrap;html=1;" parent="1" vertex="1">
          <mxGeometry x="2420" y="690" width="160" height="100" as="geometry" />
        </mxCell>
        <mxCell id="cLUYI5qMMWvKZr-MMFAg-68" value="&lt;div&gt;&lt;span style=&quot;text-wrap: nowrap;&quot;&gt;- ID: int&lt;/span&gt;&lt;/div&gt;&lt;span style=&quot;text-wrap: nowrap;&quot;&gt;-&amp;nbsp;&lt;/span&gt;&lt;span style=&quot;text-wrap: nowrap;&quot;&gt;MitgliedID: int&lt;br&gt;&lt;/span&gt;&lt;div style=&quot;text-wrap: nowrap;&quot;&gt;&lt;span style=&quot;background-color: initial;&quot;&gt;-&lt;/span&gt;&lt;span style=&quot;background-color: initial;&quot;&gt;&amp;nbsp;&lt;/span&gt;EventID: int&lt;/div&gt;" style="text;strokeColor=none;fillColor=none;align=left;verticalAlign=top;spacingLeft=4;spacingRight=4;overflow=hidden;rotatable=0;points=[[0,0.5],[1,0.5]];portConstraint=eastwest;whiteSpace=wrap;html=1;" parent="cLUYI5qMMWvKZr-MMFAg-67" vertex="1">
          <mxGeometry y="50" width="160" height="50" as="geometry" />
        </mxCell>
        <mxCell id="cLUYI5qMMWvKZr-MMFAg-71" value="&lt;div style=&quot;font-size: 14px; font-weight: 400;&quot;&gt;&amp;lt;&amp;lt;Entity&amp;gt;&amp;gt;&lt;b&gt;&lt;br&gt;&lt;/b&gt;&lt;/div&gt;&lt;b style=&quot;font-size: 14px;&quot;&gt;E-Mail&lt;/b&gt;" style="swimlane;fontStyle=1;align=center;verticalAlign=top;childLayout=stackLayout;horizontal=1;startSize=50;horizontalStack=0;resizeParent=1;resizeParentMax=0;resizeLast=0;collapsible=1;marginBottom=0;whiteSpace=wrap;html=1;" parent="1" vertex="1">
          <mxGeometry x="2780" y="653" width="160" height="144" as="geometry" />
        </mxCell>
        <mxCell id="cLUYI5qMMWvKZr-MMFAg-72" value="&lt;span style=&quot;text-wrap: nowrap;&quot;&gt;Kennung: String&lt;/span&gt;&lt;div style=&quot;text-wrap: nowrap;&quot;&gt;Organisation: String&lt;/div&gt;&lt;div style=&quot;text-wrap: nowrap;&quot;&gt;Domäne: String&lt;/div&gt;" style="text;strokeColor=none;fillColor=none;align=left;verticalAlign=top;spacingLeft=4;spacingRight=4;overflow=hidden;rotatable=0;points=[[0,0.5],[1,0.5]];portConstraint=eastwest;whiteSpace=wrap;html=1;" parent="cLUYI5qMMWvKZr-MMFAg-71" vertex="1">
          <mxGeometry y="50" width="160" height="60" as="geometry" />
        </mxCell>
        <mxCell id="cLUYI5qMMWvKZr-MMFAg-73" value="" style="line;strokeWidth=1;fillColor=none;align=left;verticalAlign=middle;spacingTop=-1;spacingLeft=3;spacingRight=3;rotatable=0;labelPosition=right;points=[];portConstraint=eastwest;strokeColor=inherit;" parent="cLUYI5qMMWvKZr-MMFAg-71" vertex="1">
          <mxGeometry y="110" width="160" height="8" as="geometry" />
        </mxCell>
        <mxCell id="cLUYI5qMMWvKZr-MMFAg-74" value="+ getEmail()" style="text;strokeColor=none;fillColor=none;align=left;verticalAlign=top;spacingLeft=4;spacingRight=4;overflow=hidden;rotatable=0;points=[[0,0.5],[1,0.5]];portConstraint=eastwest;whiteSpace=wrap;html=1;" parent="cLUYI5qMMWvKZr-MMFAg-71" vertex="1">
          <mxGeometry y="118" width="160" height="26" as="geometry" />
        </mxCell>
        <mxCell id="cLUYI5qMMWvKZr-MMFAg-75" value="&lt;div style=&quot;font-size: 14px; font-weight: 400;&quot;&gt;&lt;span style=&quot;background-color: initial;&quot;&gt;&amp;lt;&amp;lt;Entity&amp;gt;&amp;gt;&lt;/span&gt;&lt;/div&gt;&lt;div style=&quot;font-size: 14px; font-weight: 400;&quot;&gt;&lt;b style=&quot;background-color: initial;&quot;&gt;Datum&lt;/b&gt;&lt;/div&gt;" style="swimlane;fontStyle=1;align=center;verticalAlign=top;childLayout=stackLayout;horizontal=1;startSize=51;horizontalStack=0;resizeParent=1;resizeParentMax=0;resizeLast=0;collapsible=1;marginBottom=0;whiteSpace=wrap;html=1;" parent="1" vertex="1">
          <mxGeometry x="2970" y="653" width="160" height="144" as="geometry" />
        </mxCell>
        <mxCell id="cLUYI5qMMWvKZr-MMFAg-76" value="&lt;span style=&quot;text-wrap: nowrap;&quot;&gt;Tag: Int&lt;/span&gt;&lt;div style=&quot;text-wrap: nowrap;&quot;&gt;Monat: Int&lt;/div&gt;&lt;div style=&quot;text-wrap: nowrap;&quot;&gt;Jahr: Int&lt;/div&gt;" style="text;strokeColor=none;fillColor=none;align=left;verticalAlign=top;spacingLeft=4;spacingRight=4;overflow=hidden;rotatable=0;points=[[0,0.5],[1,0.5]];portConstraint=eastwest;whiteSpace=wrap;html=1;" parent="cLUYI5qMMWvKZr-MMFAg-75" vertex="1">
          <mxGeometry y="51" width="160" height="59" as="geometry" />
        </mxCell>
        <mxCell id="cLUYI5qMMWvKZr-MMFAg-77" value="" style="line;strokeWidth=1;fillColor=none;align=left;verticalAlign=middle;spacingTop=-1;spacingLeft=3;spacingRight=3;rotatable=0;labelPosition=right;points=[];portConstraint=eastwest;strokeColor=inherit;" parent="cLUYI5qMMWvKZr-MMFAg-75" vertex="1">
          <mxGeometry y="110" width="160" height="8" as="geometry" />
        </mxCell>
        <mxCell id="cLUYI5qMMWvKZr-MMFAg-78" value="+ getDatum()" style="text;strokeColor=none;fillColor=none;align=left;verticalAlign=top;spacingLeft=4;spacingRight=4;overflow=hidden;rotatable=0;points=[[0,0.5],[1,0.5]];portConstraint=eastwest;whiteSpace=wrap;html=1;" parent="cLUYI5qMMWvKZr-MMFAg-75" vertex="1">
          <mxGeometry y="118" width="160" height="26" as="geometry" />
        </mxCell>
        <mxCell id="cLUYI5qMMWvKZr-MMFAg-79" value="&lt;div style=&quot;font-size: 14px; font-weight: 400;&quot;&gt;&lt;span style=&quot;background-color: initial;&quot;&gt;&amp;lt;&amp;lt;Entity&amp;gt;&amp;gt;&lt;/span&gt;&lt;/div&gt;&lt;div style=&quot;font-size: 14px; font-weight: 400;&quot;&gt;&lt;b style=&quot;background-color: initial;&quot;&gt;Adresse&lt;/b&gt;&lt;/div&gt;" style="swimlane;fontStyle=1;align=center;verticalAlign=top;childLayout=stackLayout;horizontal=1;startSize=46;horizontalStack=0;resizeParent=1;resizeParentMax=0;resizeLast=0;collapsible=1;marginBottom=0;whiteSpace=wrap;html=1;" parent="1" vertex="1">
          <mxGeometry x="2970" y="458" width="160" height="154" as="geometry" />
        </mxCell>
        <mxCell id="cLUYI5qMMWvKZr-MMFAg-80" value="&lt;span style=&quot;text-wrap: nowrap;&quot;&gt;Strasse: String&lt;/span&gt;&lt;div style=&quot;text-wrap: nowrap;&quot;&gt;Hausnummer: String&lt;/div&gt;&lt;div style=&quot;text-wrap: nowrap;&quot;&gt;PLZ: String&lt;/div&gt;&lt;div style=&quot;text-wrap: nowrap;&quot;&gt;Ort: String&lt;/div&gt;" style="text;strokeColor=none;fillColor=none;align=left;verticalAlign=top;spacingLeft=4;spacingRight=4;overflow=hidden;rotatable=0;points=[[0,0.5],[1,0.5]];portConstraint=eastwest;whiteSpace=wrap;html=1;" parent="cLUYI5qMMWvKZr-MMFAg-79" vertex="1">
          <mxGeometry y="46" width="160" height="74" as="geometry" />
        </mxCell>
        <mxCell id="cLUYI5qMMWvKZr-MMFAg-81" value="" style="line;strokeWidth=1;fillColor=none;align=left;verticalAlign=middle;spacingTop=-1;spacingLeft=3;spacingRight=3;rotatable=0;labelPosition=right;points=[];portConstraint=eastwest;strokeColor=inherit;" parent="cLUYI5qMMWvKZr-MMFAg-79" vertex="1">
          <mxGeometry y="120" width="160" height="8" as="geometry" />
        </mxCell>
        <mxCell id="cLUYI5qMMWvKZr-MMFAg-82" value="+ getAdresse()" style="text;strokeColor=none;fillColor=none;align=left;verticalAlign=top;spacingLeft=4;spacingRight=4;overflow=hidden;rotatable=0;points=[[0,0.5],[1,0.5]];portConstraint=eastwest;whiteSpace=wrap;html=1;" parent="cLUYI5qMMWvKZr-MMFAg-79" vertex="1">
          <mxGeometry y="128" width="160" height="26" as="geometry" />
        </mxCell>
        <mxCell id="cLUYI5qMMWvKZr-MMFAg-99" value="&lt;div&gt;&lt;span style=&quot;font-weight: normal;&quot;&gt;&amp;lt;&amp;lt;control&amp;gt;&amp;gt;&lt;/span&gt;&lt;/div&gt;HelferEintragen" style="swimlane;fontStyle=1;align=center;verticalAlign=top;childLayout=stackLayout;horizontal=1;startSize=43;horizontalStack=0;resizeParent=1;resizeParentMax=0;resizeLast=0;collapsible=1;marginBottom=0;whiteSpace=wrap;html=1;" parent="1" vertex="1">
          <mxGeometry x="1770" y="481" width="230" height="69" as="geometry" />
        </mxCell>
        <mxCell id="cLUYI5qMMWvKZr-MMFAg-100" value="+ addHelfer(eventID: int, benutzerID: int)" style="text;strokeColor=none;fillColor=none;align=left;verticalAlign=top;spacingLeft=4;spacingRight=4;overflow=hidden;rotatable=0;points=[[0,0.5],[1,0.5]];portConstraint=eastwest;whiteSpace=wrap;html=1;" parent="cLUYI5qMMWvKZr-MMFAg-99" vertex="1">
          <mxGeometry y="43" width="230" height="26" as="geometry" />
        </mxCell>
        <mxCell id="cLUYI5qMMWvKZr-MMFAg-101" value="&lt;div&gt;&lt;span style=&quot;font-weight: normal;&quot;&gt;&amp;lt;&amp;lt;control&amp;gt;&amp;gt;&lt;/span&gt;&lt;/div&gt;EventsPflegen" style="swimlane;fontStyle=1;align=center;verticalAlign=top;childLayout=stackLayout;horizontal=1;startSize=43;horizontalStack=0;resizeParent=1;resizeParentMax=0;resizeLast=0;collapsible=1;marginBottom=0;whiteSpace=wrap;html=1;" parent="1" vertex="1">
          <mxGeometry x="1770" y="358" width="160" height="100" as="geometry" />
        </mxCell>
        <mxCell id="cLUYI5qMMWvKZr-MMFAg-102" value="+ eventAnlegen()&lt;div&gt;+ eventBearbeiten()&lt;/div&gt;&lt;div&gt;+ eventLöschen()&lt;/div&gt;" style="text;strokeColor=none;fillColor=none;align=left;verticalAlign=top;spacingLeft=4;spacingRight=4;overflow=hidden;rotatable=0;points=[[0,0.5],[1,0.5]];portConstraint=eastwest;whiteSpace=wrap;html=1;" parent="cLUYI5qMMWvKZr-MMFAg-101" vertex="1">
          <mxGeometry y="43" width="160" height="57" as="geometry" />
        </mxCell>
        <mxCell id="cLUYI5qMMWvKZr-MMFAg-103" value="&lt;div&gt;&lt;span style=&quot;font-weight: normal;&quot;&gt;&amp;lt;&amp;lt;control&amp;gt;&amp;gt;&lt;/span&gt;&lt;/div&gt;Anmelden" style="swimlane;fontStyle=1;align=center;verticalAlign=top;childLayout=stackLayout;horizontal=1;startSize=43;horizontalStack=0;resizeParent=1;resizeParentMax=0;resizeLast=0;collapsible=1;marginBottom=0;whiteSpace=wrap;html=1;" parent="1" vertex="1">
          <mxGeometry x="1770" y="178" width="240" height="69" as="geometry" />
        </mxCell>
        <mxCell id="cLUYI5qMMWvKZr-MMFAg-104" value="+ anmelden(email: string, passwort: string)" style="text;strokeColor=none;fillColor=none;align=left;verticalAlign=top;spacingLeft=4;spacingRight=4;overflow=hidden;rotatable=0;points=[[0,0.5],[1,0.5]];portConstraint=eastwest;whiteSpace=wrap;html=1;" parent="cLUYI5qMMWvKZr-MMFAg-103" vertex="1">
          <mxGeometry y="43" width="240" height="26" as="geometry" />
        </mxCell>
        <mxCell id="cLUYI5qMMWvKZr-MMFAg-107" value="&lt;div&gt;&lt;span style=&quot;font-weight: normal;&quot;&gt;&amp;lt;&amp;lt;control&amp;gt;&amp;gt;&lt;/span&gt;&lt;/div&gt;HelferAuflisten" style="swimlane;fontStyle=1;align=center;verticalAlign=top;childLayout=stackLayout;horizontal=1;startSize=43;horizontalStack=0;resizeParent=1;resizeParentMax=0;resizeLast=0;collapsible=1;marginBottom=0;whiteSpace=wrap;html=1;" parent="1" vertex="1">
          <mxGeometry x="1770" y="581" width="160" height="69" as="geometry" />
        </mxCell>
        <mxCell id="cLUYI5qMMWvKZr-MMFAg-108" value="+ getHelfer(eventID: int)" style="text;strokeColor=none;fillColor=none;align=left;verticalAlign=top;spacingLeft=4;spacingRight=4;overflow=hidden;rotatable=0;points=[[0,0.5],[1,0.5]];portConstraint=eastwest;whiteSpace=wrap;html=1;" parent="cLUYI5qMMWvKZr-MMFAg-107" vertex="1">
          <mxGeometry y="43" width="160" height="26" as="geometry" />
        </mxCell>
        <mxCell id="cLUYI5qMMWvKZr-MMFAg-117" style="edgeStyle=orthogonalEdgeStyle;rounded=0;orthogonalLoop=1;jettySize=auto;html=1;endArrow=none;endFill=0;" parent="1" source="cLUYI5qMMWvKZr-MMFAg-109" target="cLUYI5qMMWvKZr-MMFAg-47" edge="1">
          <mxGeometry relative="1" as="geometry" />
        </mxCell>
        <mxCell id="cLUYI5qMMWvKZr-MMFAg-118" value="verwaltet" style="edgeLabel;html=1;align=center;verticalAlign=middle;resizable=0;points=[];" parent="cLUYI5qMMWvKZr-MMFAg-117" vertex="1" connectable="0">
          <mxGeometry x="-0.0841" y="-2" relative="1" as="geometry">
            <mxPoint as="offset" />
          </mxGeometry>
        </mxCell>
        <mxCell id="cLUYI5qMMWvKZr-MMFAg-109" value="&lt;div&gt;&lt;span style=&quot;font-weight: normal;&quot;&gt;&amp;lt;&amp;lt;control&amp;gt;&amp;gt;&lt;/span&gt;&lt;/div&gt;BenutzerManager" style="swimlane;fontStyle=1;align=center;verticalAlign=top;childLayout=stackLayout;horizontal=1;startSize=43;horizontalStack=0;resizeParent=1;resizeParentMax=0;resizeLast=0;collapsible=1;marginBottom=0;whiteSpace=wrap;html=1;" parent="1" vertex="1">
          <mxGeometry x="2030" y="30" width="230" height="90" as="geometry" />
        </mxCell>
        <mxCell id="cLUYI5qMMWvKZr-MMFAg-110" value="+ benutzerSuchen(email, passwort)&lt;div&gt;+ benutzerAnlegen(benutzer: Benutzer)&lt;br&gt;&lt;/div&gt;" style="text;strokeColor=none;fillColor=none;align=left;verticalAlign=top;spacingLeft=4;spacingRight=4;overflow=hidden;rotatable=0;points=[[0,0.5],[1,0.5]];portConstraint=eastwest;whiteSpace=wrap;html=1;" parent="cLUYI5qMMWvKZr-MMFAg-109" vertex="1">
          <mxGeometry y="43" width="230" height="47" as="geometry" />
        </mxCell>
        <mxCell id="cLUYI5qMMWvKZr-MMFAg-121" style="edgeStyle=orthogonalEdgeStyle;rounded=0;orthogonalLoop=1;jettySize=auto;html=1;endArrow=none;endFill=0;" parent="1" source="cLUYI5qMMWvKZr-MMFAg-111" target="cLUYI5qMMWvKZr-MMFAg-63" edge="1">
          <mxGeometry relative="1" as="geometry" />
        </mxCell>
        <mxCell id="cLUYI5qMMWvKZr-MMFAg-123" value="verwaltet" style="edgeLabel;html=1;align=center;verticalAlign=middle;resizable=0;points=[];" parent="cLUYI5qMMWvKZr-MMFAg-121" vertex="1" connectable="0">
          <mxGeometry x="0.0238" relative="1" as="geometry">
            <mxPoint as="offset" />
          </mxGeometry>
        </mxCell>
        <mxCell id="cLUYI5qMMWvKZr-MMFAg-111" value="&lt;div&gt;&lt;span style=&quot;font-weight: normal;&quot;&gt;&amp;lt;&amp;lt;control&amp;gt;&amp;gt;&lt;/span&gt;&lt;/div&gt;EventManager" style="swimlane;fontStyle=1;align=center;verticalAlign=top;childLayout=stackLayout;horizontal=1;startSize=43;horizontalStack=0;resizeParent=1;resizeParentMax=0;resizeLast=0;collapsible=1;marginBottom=0;whiteSpace=wrap;html=1;" parent="1" vertex="1">
          <mxGeometry x="2080" y="474" width="200" height="100" as="geometry" />
        </mxCell>
        <mxCell id="cLUYI5qMMWvKZr-MMFAg-112" value="+ addEvent(event: Event)&lt;div&gt;+ modifyEvent(newEvent: Event)&lt;/div&gt;&lt;div&gt;+ deleteEvent(eventID: int)&lt;/div&gt;" style="text;strokeColor=none;fillColor=none;align=left;verticalAlign=top;spacingLeft=4;spacingRight=4;overflow=hidden;rotatable=0;points=[[0,0.5],[1,0.5]];portConstraint=eastwest;whiteSpace=wrap;html=1;" parent="cLUYI5qMMWvKZr-MMFAg-111" vertex="1">
          <mxGeometry y="43" width="200" height="57" as="geometry" />
        </mxCell>
        <mxCell id="cLUYI5qMMWvKZr-MMFAg-122" style="edgeStyle=orthogonalEdgeStyle;rounded=0;orthogonalLoop=1;jettySize=auto;html=1;endArrow=none;endFill=0;" parent="1" source="cLUYI5qMMWvKZr-MMFAg-113" target="cLUYI5qMMWvKZr-MMFAg-67" edge="1">
          <mxGeometry relative="1" as="geometry" />
        </mxCell>
        <mxCell id="cLUYI5qMMWvKZr-MMFAg-124" value="verwaltet" style="edgeLabel;html=1;align=center;verticalAlign=middle;resizable=0;points=[];" parent="cLUYI5qMMWvKZr-MMFAg-122" vertex="1" connectable="0">
          <mxGeometry x="-0.0143" relative="1" as="geometry">
            <mxPoint as="offset" />
          </mxGeometry>
        </mxCell>
        <mxCell id="cLUYI5qMMWvKZr-MMFAg-113" value="&lt;div&gt;&lt;span style=&quot;font-weight: normal;&quot;&gt;&amp;lt;&amp;lt;control&amp;gt;&amp;gt;&lt;/span&gt;&lt;/div&gt;HelferManager" style="swimlane;fontStyle=1;align=center;verticalAlign=top;childLayout=stackLayout;horizontal=1;startSize=43;horizontalStack=0;resizeParent=1;resizeParentMax=0;resizeLast=0;collapsible=1;marginBottom=0;whiteSpace=wrap;html=1;" parent="1" vertex="1">
          <mxGeometry x="1980" y="695" width="260" height="90" as="geometry" />
        </mxCell>
        <mxCell id="cLUYI5qMMWvKZr-MMFAg-114" value="+ addHelfer(eventID: int, benutzerID: int)&lt;div&gt;+ remove&lt;span style=&quot;background-color: initial;&quot;&gt;Helfer(eventID: int, benutzerID: int)&lt;/span&gt;&lt;/div&gt;" style="text;strokeColor=none;fillColor=none;align=left;verticalAlign=top;spacingLeft=4;spacingRight=4;overflow=hidden;rotatable=0;points=[[0,0.5],[1,0.5]];portConstraint=eastwest;whiteSpace=wrap;html=1;" parent="cLUYI5qMMWvKZr-MMFAg-113" vertex="1">
          <mxGeometry y="43" width="260" height="47" as="geometry" />
        </mxCell>
        <mxCell id="cLUYI5qMMWvKZr-MMFAg-119" value="1" style="text;html=1;align=center;verticalAlign=middle;resizable=0;points=[];autosize=1;strokeColor=none;fillColor=none;" parent="1" vertex="1">
          <mxGeometry x="2258" y="80" width="30" height="30" as="geometry" />
        </mxCell>
        <mxCell id="cLUYI5qMMWvKZr-MMFAg-120" value="*" style="text;html=1;align=center;verticalAlign=middle;resizable=0;points=[];autosize=1;strokeColor=none;fillColor=none;" parent="1" vertex="1">
          <mxGeometry x="2430" y="82" width="30" height="30" as="geometry" />
        </mxCell>
        <mxCell id="cLUYI5qMMWvKZr-MMFAg-125" value="1" style="text;html=1;align=center;verticalAlign=middle;resizable=0;points=[];autosize=1;strokeColor=none;fillColor=none;" parent="1" vertex="1">
          <mxGeometry x="2280" y="523.5" width="30" height="30" as="geometry" />
        </mxCell>
        <mxCell id="cLUYI5qMMWvKZr-MMFAg-126" value="*" style="text;html=1;align=center;verticalAlign=middle;resizable=0;points=[];autosize=1;strokeColor=none;fillColor=none;" parent="1" vertex="1">
          <mxGeometry x="2390" y="525" width="30" height="30" as="geometry" />
        </mxCell>
        <mxCell id="cLUYI5qMMWvKZr-MMFAg-127" value="1" style="text;html=1;align=center;verticalAlign=middle;resizable=0;points=[];autosize=1;strokeColor=none;fillColor=none;" parent="1" vertex="1">
          <mxGeometry x="2240" y="740" width="30" height="30" as="geometry" />
        </mxCell>
        <mxCell id="cLUYI5qMMWvKZr-MMFAg-128" value="*" style="text;html=1;align=center;verticalAlign=middle;resizable=0;points=[];autosize=1;strokeColor=none;fillColor=none;" parent="1" vertex="1">
          <mxGeometry x="2390" y="740" width="30" height="30" as="geometry" />
        </mxCell>
        <mxCell id="cLUYI5qMMWvKZr-MMFAg-130" value="1" style="text;html=1;align=center;verticalAlign=middle;resizable=0;points=[];autosize=1;strokeColor=none;fillColor=none;" parent="1" vertex="1">
          <mxGeometry x="2580" y="519" width="30" height="30" as="geometry" />
        </mxCell>
        <mxCell id="cLUYI5qMMWvKZr-MMFAg-131" value="*" style="text;html=1;align=center;verticalAlign=middle;resizable=0;points=[];autosize=1;strokeColor=none;fillColor=none;" parent="1" vertex="1">
          <mxGeometry x="2577" y="762" width="30" height="30" as="geometry" />
        </mxCell>
        <mxCell id="cLUYI5qMMWvKZr-MMFAg-135" value="*" style="text;html=1;align=center;verticalAlign=middle;resizable=0;points=[];autosize=1;strokeColor=none;fillColor=none;" parent="1" vertex="1">
          <mxGeometry x="2579" y="698" width="30" height="30" as="geometry" />
        </mxCell>
        <mxCell id="cLUYI5qMMWvKZr-MMFAg-136" value="1" style="text;html=1;align=center;verticalAlign=middle;resizable=0;points=[];autosize=1;strokeColor=none;fillColor=none;" parent="1" vertex="1">
          <mxGeometry x="2719" y="410" width="30" height="30" as="geometry" />
        </mxCell>
        <mxCell id="cLUYI5qMMWvKZr-MMFAg-137" style="edgeStyle=orthogonalEdgeStyle;rounded=0;orthogonalLoop=1;jettySize=auto;html=1;entryX=0.002;entryY=0.141;entryDx=0;entryDy=0;entryPerimeter=0;endArrow=open;endFill=0;" parent="1" source="cLUYI5qMMWvKZr-MMFAg-55" target="cLUYI5qMMWvKZr-MMFAg-63" edge="1">
          <mxGeometry relative="1" as="geometry">
            <Array as="points">
              <mxPoint x="2380" y="345" />
              <mxPoint x="2380" y="470" />
            </Array>
          </mxGeometry>
        </mxCell>
        <mxCell id="cLUYI5qMMWvKZr-MMFAg-140" value="organisiert" style="edgeLabel;html=1;align=center;verticalAlign=middle;resizable=0;points=[];" parent="cLUYI5qMMWvKZr-MMFAg-137" vertex="1" connectable="0">
          <mxGeometry x="-0.0237" relative="1" as="geometry">
            <mxPoint as="offset" />
          </mxGeometry>
        </mxCell>
        <mxCell id="cLUYI5qMMWvKZr-MMFAg-138" value="1" style="text;html=1;align=center;verticalAlign=middle;resizable=0;points=[];autosize=1;strokeColor=none;fillColor=none;" parent="1" vertex="1">
          <mxGeometry x="2390" y="316" width="30" height="30" as="geometry" />
        </mxCell>
        <mxCell id="cLUYI5qMMWvKZr-MMFAg-139" value="*" style="text;html=1;align=center;verticalAlign=middle;resizable=0;points=[];autosize=1;strokeColor=none;fillColor=none;" parent="1" vertex="1">
          <mxGeometry x="2390" y="470" width="30" height="30" as="geometry" />
        </mxCell>
        <mxCell id="VDEShlPZXX6qfzh75GbT-1" value="&lt;div&gt;&lt;span style=&quot;font-weight: normal;&quot;&gt;&amp;lt;&amp;lt;control&amp;gt;&amp;gt;&lt;/span&gt;&lt;/div&gt;Registrieren" style="swimlane;fontStyle=1;align=center;verticalAlign=top;childLayout=stackLayout;horizontal=1;startSize=43;horizontalStack=0;resizeParent=1;resizeParentMax=0;resizeLast=0;collapsible=1;marginBottom=0;whiteSpace=wrap;html=1;" vertex="1" parent="1">
          <mxGeometry x="1770" y="265.5" width="200" height="69" as="geometry" />
        </mxCell>
        <mxCell id="VDEShlPZXX6qfzh75GbT-2" value="+ registrieren(benutzer: Benutzer)" style="text;strokeColor=none;fillColor=none;align=left;verticalAlign=top;spacingLeft=4;spacingRight=4;overflow=hidden;rotatable=0;points=[[0,0.5],[1,0.5]];portConstraint=eastwest;whiteSpace=wrap;html=1;" vertex="1" parent="VDEShlPZXX6qfzh75GbT-1">
          <mxGeometry y="43" width="200" height="26" as="geometry" />
        </mxCell>
      </root>
    </mxGraphModel>
  </diagram>
</mxfile>
